<svg xmlns="http://www.w3.org/2000/svg" xmlns:xlink="http://www.w3.org/1999/xlink" width="70" height="70" viewBox="0 0 70 70"><defs><clipPath id="a"><path d="M37.883,60a24.871,24.871,0,0,1-8.743,5.664h0c-.17.062-.34.12-.511.178a25.057,25.057,0,0,1-4.112,1.079,24.644,24.644,0,0,1-4.208.361c-.008,0-.016,0-.024,0-.515,0-1.025-.017-1.539-.046-.279-.021-.56-.041-.838-.067a24.692,24.692,0,0,1-3.955-.71.067.067,0,0,1-.029-.008A24.918,24.918,0,0,1,.067,56.874C.024,57.41,0,57.945,0,58.484A20.2,20.2,0,0,0,5.531,72.407c.133.146.274.287.411.428s.287.278.427.411a20.2,20.2,0,0,0,13.923,5.531,20.426,20.426,0,0,0,7.216-1.316s.008,0,.012-.008a20.3,20.3,0,0,0,12.4-13.782.086.086,0,0,0,0-.016c.042-.153.071-.311.109-.464a20.36,20.36,0,0,0,.564-4.714c0-.307-.009-.614-.021-.917-.013-.233-.029-.461-.05-.689A24.707,24.707,0,0,1,37.883,60" transform="translate(0 -56.87)" fill="#6c81a2"/></clipPath><clipPath id="b"><path d="M39.363,1.326A20.316,20.316,0,0,0,26.956,15.112a.015.015,0,0,0,0,.012c-.037.133-.062.262-.091.395a20.491,20.491,0,0,0-.56,4.137c0,.22-.021.435-.021.655,0,.307.009.611.021.918.012.224.029.452.046.677a24.982,24.982,0,0,1,11.391-8.79h0c.153-.058.307-.116.465-.17.042-.017.078-.033.12-.046s.083-.029.124-.042.083-.029.125-.042l.041-.012c.079-.029.162-.054.245-.083s.191-.062.286-.091c.017,0,.033-.013.05-.017l.046-.012a.746.746,0,0,1,.108-.034.017.017,0,0,1,.012,0,.106.106,0,0,1,.029-.009.259.259,0,0,0,.05-.016c.021-.009.042-.013.063-.021.2-.058.4-.112.6-.166.158-.042.32-.083.481-.121.042-.012.079-.024.121-.033s.078-.017.12-.029c.078-.017.158-.037.241-.054.157-.037.319-.075.481-.108s.323-.062.485-.091c.075-.017.146-.029.22-.042.017,0,.034,0,.05-.008.07-.012.145-.025.216-.033.162-.029.324-.054.486-.079.328-.046.651-.087.979-.12q.734-.075,1.469-.112c.373-.017.751-.024,1.124-.024.535,0,1.071.017,1.6.05a24.734,24.734,0,0,1,4.755.776.088.088,0,0,1,.029.008,24.738,24.738,0,0,1,11.2,6.449,25.278,25.278,0,0,1,2.652,3.125c.042-.536.067-1.079.067-1.619a20.219,20.219,0,0,0-5.532-13.91c-.137-.145-.274-.286-.415-.423v0c-.141-.141-.282-.278-.424-.411A20.141,20.141,0,0,0,46.646.007a20.481,20.481,0,0,0-7.283,1.319" transform="translate(-26.279 -0.007)" fill="#6c81a2"/></clipPath><clipPath id="c"><path d="M20.3,0A20.221,20.221,0,0,0,6.37,5.532c-.141.137-.286.274-.423.415s-.282.282-.416.424A20.207,20.207,0,0,0,0,20.289a20.458,20.458,0,0,0,1.319,7.237,20.354,20.354,0,0,0,13.786,12.4s.008,0,.017,0A20.259,20.259,0,0,0,20.3,40.6c.536,0,1.066-.025,1.6-.067a24.891,24.891,0,0,1-9.586-26.587l.012-.025a24.716,24.716,0,0,1,6.449-11.2A25.264,25.264,0,0,1,21.832.12a.737.737,0,0,1,.075-.054C21.371.025,20.836,0,20.3,0Z" fill="#153972"/></clipPath><clipPath id="d"><path d="M57.552,26.3c-.233.013-.461.029-.689.046A24.8,24.8,0,0,1,67.279,46.58c0,.8-.041,1.6-.116,2.4-.054.531-.12,1.062-.207,1.589-.129.8-.295,1.585-.5,2.366a.126.126,0,0,1-.008.029A24.777,24.777,0,0,1,60,64.167a25.294,25.294,0,0,1-3.125,2.647c.536.042,1.075.067,1.615.067A20.207,20.207,0,0,0,72.4,61.349c.142-.137.282-.274.424-.416s.278-.282.415-.424a20.3,20.3,0,0,0-9.574-33.555c-.008,0-.012,0-.016,0a20.172,20.172,0,0,0-3.872-.631c-.44-.029-.876-.042-1.311-.042-.307,0-.614.009-.917.021" transform="translate(-56.863 -26.279)" fill="#153972"/></clipPath></defs><g transform="translate(-1817 -1792)"><g transform="translate(14750 13909)"><g transform="translate(-12926 -12075.245)" clip-path="url(#a)"><rect width="40.602" height="21.907" transform="translate(0 0)" fill="#6c81a2"/></g><g transform="translate(-12909.94 -12109.996)" clip-path="url(#b)"><rect width="40.602" height="21.899" transform="translate(0 0)" fill="#6c81a2"/></g><g transform="translate(-12926 -12110)" clip-path="url(#c)"><rect width="21.907" height="40.602" transform="translate(0 0)" fill="#153972"/></g><g transform="translate(-12891.25 -12093.94)" clip-path="url(#d)"><rect width="40.737" height="22.163" transform="translate(-0.252 40.6) rotate(-89.644)" fill="#153972"/></g></g><rect width="70" height="70" transform="translate(1817 1792)" fill="none"/></g></svg>