<svg xmlns="http://www.w3.org/2000/svg" xmlns:xlink="http://www.w3.org/1999/xlink" width="28" height="28" viewBox="0 0 28 28"><defs><clipPath id="a"><rect width="28" height="28" transform="translate(131 355)" fill="#fff" stroke="#707070" stroke-width="1"/></clipPath></defs><g transform="translate(-131 -355)" clip-path="url(#a)"><g transform="translate(15 -42)"><path d="M7,1.5A5.506,5.506,0,0,0,1.5,7v8A5.506,5.506,0,0,0,7,20.5h8A5.506,5.506,0,0,0,20.5,15V7A5.506,5.506,0,0,0,15,1.5H7M7,0h8a7,7,0,0,1,7,7v8a7,7,0,0,1-7,7H7a7,7,0,0,1-7-7V7A7,7,0,0,1,7,0Z" transform="translate(119 400)" fill="#353533"/><path d="M5,1.5A3.5,3.5,0,1,0,8.5,5,3.5,3.5,0,0,0,5,1.5M5,0A5,5,0,1,1,0,5,5,5,0,0,1,5,0Z" transform="translate(125 406)" fill="#353533"/><circle cx="1.5" cy="1.5" r="1.5" transform="translate(134 404)" fill="#353533"/></g></g></svg>