<svg xmlns="http://www.w3.org/2000/svg" xmlns:xlink="http://www.w3.org/1999/xlink" width="28" height="28" viewBox="0 0 28 28"><defs><clipPath id="a"><rect width="28" height="28" transform="translate(68 480)" fill="#fff" stroke="#353533" stroke-width="1"/></clipPath></defs><g transform="translate(-68 -480)" clip-path="url(#a)"><g transform="translate(-1662.461 20392)"><path d="M3.611-.75A4.361,4.361,0,1,1-.75,3.611,4.366,4.366,0,0,1,3.611-.75Zm0,7.222A2.861,2.861,0,1,0,.75,3.611,2.864,2.864,0,0,0,3.611,6.472Z" transform="translate(1740.815 -19904.186)" fill="#3b3730"/><path d="M14.461,5.25a9.222,9.222,0,0,1,9.211,9.211,12.888,12.888,0,0,1-1.4,5.657,20.715,20.715,0,0,1-3.017,4.46,26.816,26.816,0,0,1-4.367,4.036.75.75,0,0,1-.86,0,26.816,26.816,0,0,1-4.367-4.036,20.715,20.715,0,0,1-3.017-4.46,12.888,12.888,0,0,1-1.4-5.657A9.222,9.222,0,0,1,14.461,5.25Zm0,21.813a26.744,26.744,0,0,0,3.687-3.495c1.836-2.117,4.024-5.416,4.024-9.107a7.711,7.711,0,1,0-15.423,0c0,3.691,2.188,6.989,4.024,9.107A26.745,26.745,0,0,0,14.461,27.063Z" transform="translate(1730 -19915)" fill="#3b3730"/></g></g></svg>