<svg xmlns="http://www.w3.org/2000/svg" xmlns:xlink="http://www.w3.org/1999/xlink" width="110" height="39.715" viewBox="0 0 110 39.715">
  <defs>
    <clipPath id="clip-path">
      <rect id="사각형_9392" data-name="사각형 9392" width="110" height="39.714" transform="translate(0 -0.001)" fill="#fff"/>
    </clipPath>
  </defs>
  <g id="그룹_9461" data-name="그룹 9461" clip-path="url(#clip-path)">
    <path id="패스_4033" data-name="패스 4033" d="M27.867,40.74v-.052a9.5,9.5,0,0,1,9.8-9.434,9.418,9.418,0,0,1,9.745,9.382v.051a9.5,9.5,0,0,1-9.8,9.434,9.418,9.418,0,0,1-9.745-9.382m14.385,0v-.052a4.679,4.679,0,0,0-4.64-4.9A4.629,4.629,0,0,0,33,40.636v.051a4.715,4.715,0,0,0,4.666,4.9,4.624,4.624,0,0,0,4.588-4.846" transform="translate(-9.28 -10.408)" fill="#fff"/>
    <path id="패스_4034" data-name="패스 4034" d="M61.985,31.8h5.028V45.534H75.8V49.94H61.985Z" transform="translate(-20.642 -10.589)" fill="#fff"/>
    <path id="패스_4035" data-name="패스 4035" d="M80.131,31.8h5.6L89.85,43.279,94,31.8h5.494L92.132,50.07H87.466Z" transform="translate(-26.685 -10.589)" fill="#fff"/>
    <rect id="사각형_9390" data-name="사각형 9390" width="8.501" height="4.303" transform="translate(73.315 29.087)" fill="#fff"/>
    <rect id="사각형_9391" data-name="사각형 9391" width="5.028" height="18.143" transform="translate(85.87 21.208)" fill="#fff"/>
    <path id="패스_4036" data-name="패스 4036" d="M146.518,36.2H141.1V31.8h15.887V36.2h-5.443V49.94h-5.028Z" transform="translate(-46.989 -10.589)" fill="#fff"/>
    <path id="패스_4037" data-name="패스 4037" d="M15.271,47.443a5.838,5.838,0,0,1-2.53,1.952,10.114,10.114,0,0,1-4.051.728,11.549,11.549,0,0,1-6.16-1.509A5.286,5.286,0,0,1,0,44.4H5.481a1.692,1.692,0,0,0,.858,1.349,4.276,4.276,0,0,0,2.14.6,2.8,2.8,0,0,0,1.591-.434,1.257,1.257,0,0,0,.547-.993,1.707,1.707,0,0,0-.527-1.268,4.233,4.233,0,0,0-1.31-.768q-.783-.3-2.168-.715a29.1,29.1,0,0,1-3.3-1.159,5.888,5.888,0,0,1-2.2-1.665A4.086,4.086,0,0,1,.2,36.567a4.386,4.386,0,0,1,.964-2.836A6.051,6.051,0,0,1,3.826,31.9a11.075,11.075,0,0,1,3.9-.638,9.725,9.725,0,0,1,5.647,1.457,5.361,5.361,0,0,1,2.364,4.007H10.528A1.736,1.736,0,0,0,9.76,35.57a3.909,3.909,0,0,0-2.034-.534,2.733,2.733,0,0,0-1.579.416,1.317,1.317,0,0,0-.558.932,1.44,1.44,0,0,0,.616,1.009,3.852,3.852,0,0,0,1.25.742q.752.286,2.168.728a26.189,26.189,0,0,1,3.343,1.184,6.207,6.207,0,0,1,2.228,1.7,4.674,4.674,0,0,1,.934,3.011,4.564,4.564,0,0,1-.858,2.68" transform="translate(0 -10.41)" fill="#fff"/>
    <path id="패스_4038" data-name="패스 4038" d="M37.415,15.158A22.1,22.1,0,0,0,53.147,8.642L55.013,6.7,56.88,8.642a22.1,22.1,0,0,0,15.732,6.516H110v-4.74H72.612a17.506,17.506,0,0,1-12.38-5.128L55.013,0,49.795,5.291a17.51,17.51,0,0,1-12.38,5.128L0,10.371v4.74Z" transform="translate(0 0)" fill="#fff"/>
  </g>
</svg>
