<svg xmlns="http://www.w3.org/2000/svg" width="179.723" height="41.959" viewBox="0 0 179.723 41.959"><g transform="translate(-1670 -685.094)"><g transform="translate(1670 685.094)"><path d="M874.5,377.954v-1.443h8.631a11.342,11.342,0,0,1-.624,3.76,9.887,9.887,0,0,1-1.8,3.178,8.522,8.522,0,0,1-2.872,2.193,8.811,8.811,0,0,1-3.83.8,9.882,9.882,0,0,1-3.844-.735,9.36,9.36,0,0,1-3.081-2.068,9.265,9.265,0,0,1-2.039-3.164,11.425,11.425,0,0,1,0-7.993,9.243,9.243,0,0,1,5.12-5.231,9.882,9.882,0,0,1,3.844-.735,9.507,9.507,0,0,1,4.691,1.11,9.012,9.012,0,0,1,3.247,3.053l-1.11.972a6.976,6.976,0,0,0-2.705-2.623,8.313,8.313,0,0,0-4.122-.985,8,8,0,0,0-4.108,1.068,7.782,7.782,0,0,0-2.9,2.969,9.592,9.592,0,0,0-.014,8.77,7.773,7.773,0,0,0,2.887,2.983A7.971,7.971,0,0,0,874,384.921a7.03,7.03,0,0,0,6.328-3.511,9.084,9.084,0,0,0,1.193-3.455Z" transform="translate(-863.823 -366.026)" fill="#353533"/><path d="M873.9,386.838a10.419,10.419,0,0,1-4.034-.773,9.749,9.749,0,0,1-5.391-5.507,11.929,11.929,0,0,1,0-8.357,9.743,9.743,0,0,1,5.391-5.507,10.419,10.419,0,0,1,4.034-.773,10.037,10.037,0,0,1,4.931,1.172,9.553,9.553,0,0,1,3.423,3.217l.231.36-1.885,1.65-.3-.523a6.516,6.516,0,0,0-2.519-2.437,7.87,7.87,0,0,0-3.88-.922,7.547,7.547,0,0,0-3.857,1,7.319,7.319,0,0,0-2.718,2.785,9.093,9.093,0,0,0-.013,8.287,7.324,7.324,0,0,0,2.7,2.8,7.536,7.536,0,0,0,3.884,1.014,6.541,6.541,0,0,0,5.9-3.268,8.58,8.58,0,0,0,1.035-2.708H873.9v-2.433h9.62v.495a11.849,11.849,0,0,1-.651,3.923,10.392,10.392,0,0,1-1.894,3.336,9.07,9.07,0,0,1-3.036,2.318A9.35,9.35,0,0,1,873.9,386.838Zm0-19.927a9.433,9.433,0,0,0-3.653.7,8.9,8.9,0,0,0-2.92,1.959,8.8,8.8,0,0,0-1.931,3,10.923,10.923,0,0,0,0,7.629,8.792,8.792,0,0,0,1.931,3,8.885,8.885,0,0,0,2.92,1.96,9.434,9.434,0,0,0,3.653.7,8.371,8.371,0,0,0,3.618-.757,8.091,8.091,0,0,0,2.707-2.065,9.431,9.431,0,0,0,1.713-3.02,10.783,10.783,0,0,0,.586-3.1h-7.63v.453h7.093l-.075.561a9.635,9.635,0,0,1-1.258,3.641,7.527,7.527,0,0,1-6.755,3.754,8.5,8.5,0,0,1-4.387-1.151,8.3,8.3,0,0,1-3.067-3.17,10.078,10.078,0,0,1,.015-9.252,8.306,8.306,0,0,1,3.082-3.155,8.53,8.53,0,0,1,4.357-1.135,8.825,8.825,0,0,1,4.363,1.048,7.574,7.574,0,0,1,2.573,2.3l.346-.3a8.532,8.532,0,0,0-2.832-2.536A9.076,9.076,0,0,0,873.9,366.912Z" transform="translate(-863.719 -365.922)" fill="#353533"/><g transform="translate(22.637 0.001)"><path d="M891.7,376.484a10.618,10.618,0,0,1,.721-3.955,9.566,9.566,0,0,1,2.027-3.164,9.27,9.27,0,0,1,3.066-2.1,10.237,10.237,0,0,1,7.688,0,9.283,9.283,0,0,1,3.067,2.1,9.575,9.575,0,0,1,2.026,3.164,11.193,11.193,0,0,1,0,7.909,9.572,9.572,0,0,1-2.026,3.163,9.281,9.281,0,0,1-3.067,2.1,10.237,10.237,0,0,1-7.688,0,9.268,9.268,0,0,1-3.066-2.1,9.563,9.563,0,0,1-2.027-3.163A10.621,10.621,0,0,1,891.7,376.484Zm1.609,0a8.92,8.92,0,0,0,1.041,4.329,7.785,7.785,0,0,0,2.858,3.011,8.4,8.4,0,0,0,8.3,0,7.685,7.685,0,0,0,2.844-3.011,9.668,9.668,0,0,0,0-8.673,7.708,7.708,0,0,0-2.844-3,7.981,7.981,0,0,0-11.156,3A8.9,8.9,0,0,0,893.305,376.484Z" transform="translate(-891.201 -366.027)" fill="#353533"/><path d="M901.25,386.839a10.266,10.266,0,0,1-4.037-.788,9.807,9.807,0,0,1-3.229-2.207,10.1,10.1,0,0,1-2.13-3.326,11.693,11.693,0,0,1,0-8.275,10.074,10.074,0,0,1,2.131-3.326,9.781,9.781,0,0,1,3.228-2.207,10.733,10.733,0,0,1,8.075,0,9.785,9.785,0,0,1,3.229,2.206,10.094,10.094,0,0,1,2.131,3.326,11.7,11.7,0,0,1,0,8.275,10.112,10.112,0,0,1-2.131,3.326,9.8,9.8,0,0,1-3.229,2.206A10.251,10.251,0,0,1,901.25,386.839Zm0-19.926a9.283,9.283,0,0,0-3.651.709,8.8,8.8,0,0,0-2.9,1.985,9.082,9.082,0,0,0-1.922,3,10.7,10.7,0,0,0,0,7.545,9.1,9.1,0,0,0,1.922,3,8.814,8.814,0,0,0,2.9,1.985,9.74,9.74,0,0,0,7.3,0,8.83,8.83,0,0,0,2.906-1.984,9.126,9.126,0,0,0,1.921-3,10.711,10.711,0,0,0,0-7.545,9.1,9.1,0,0,0-1.921-3,8.8,8.8,0,0,0-2.906-1.984A9.261,9.261,0,0,0,901.25,366.913Zm0,18.4a8.407,8.407,0,0,1-4.405-1.167,8.322,8.322,0,0,1-3.038-3.2,10.051,10.051,0,0,1,0-9.147,8.651,8.651,0,0,1,11.848-3.183,8.238,8.238,0,0,1,3.025,3.187,10.17,10.17,0,0,1,0,9.142,8.223,8.223,0,0,1-3.025,3.2A8.406,8.406,0,0,1,901.25,385.312Zm0-16.873a7.26,7.26,0,0,0-6.573,3.836,9.062,9.062,0,0,0,0,8.2,7.333,7.333,0,0,0,2.679,2.824,7.9,7.9,0,0,0,7.786,0,7.236,7.236,0,0,0,2.665-2.821,9.171,9.171,0,0,0,0-8.2,7.252,7.252,0,0,0-2.665-2.809A7.426,7.426,0,0,0,901.25,368.439Z" transform="translate(-891.097 -365.923)" fill="#353533"/></g><g transform="translate(64.715 0.25)"><path d="M942.586,366.823h1.637V386.5h-1.637Z" transform="translate(-942.091 -366.328)" fill="#353533"/><path d="M944.614,386.891h-2.627V366.224h2.627Zm-1.637-.99h.647V367.215h-.647Z" transform="translate(-941.987 -366.224)" fill="#353533"/></g><g transform="translate(96.995 0.25)"><path d="M981.626,368.266v-1.443H997.4v1.443h-7.125v17.984h-1.526V368.266Z" transform="translate(-981.132 -366.328)" fill="#353533"/><path d="M990.669,386.641h-2.516V368.657h-7.125v-2.433h16.767v2.433h-7.126Zm-1.526-.991h.537V367.667H996.8v-.452H982.018v.452h7.125Z" transform="translate(-981.028 -366.224)" fill="#353533"/></g><g transform="translate(135.647 0.25)"><path d="M1029.2,386.249h-.833V366.823h5.274a9.92,9.92,0,0,1,4.982,1.22,8.667,8.667,0,0,1,3.358,3.4,11.346,11.346,0,0,1,0,10.186,8.659,8.659,0,0,1-3.358,3.4,9.911,9.911,0,0,1-4.982,1.221H1029.2Zm.695-1.526h3.746a8.455,8.455,0,0,0,4.233-1.013,7.1,7.1,0,0,0,2.789-2.858,9.854,9.854,0,0,0,0-8.645,7.119,7.119,0,0,0-2.789-2.844,8.455,8.455,0,0,0-4.233-1.013H1029.9Z" transform="translate(-1027.878 -366.328)" fill="#353533"/><path d="M1033.541,386.641h-5.767V366.224h5.767a10.451,10.451,0,0,1,5.227,1.286,9.188,9.188,0,0,1,3.546,3.59,11.836,11.836,0,0,1,0,10.665,9.188,9.188,0,0,1-3.546,3.59A10.451,10.451,0,0,1,1033.541,386.641Zm-4.778-.991h4.778a9.477,9.477,0,0,0,4.738-1.156,8.224,8.224,0,0,0,3.17-3.209,10.855,10.855,0,0,0,0-9.706,8.229,8.229,0,0,0-3.17-3.209,9.477,9.477,0,0,0-4.738-1.156h-4.778Zm4.778-.536H1029.3V367.75h4.241a8.986,8.986,0,0,1,4.477,1.077,7.638,7.638,0,0,1,2.98,3.039,10.339,10.339,0,0,1,0,9.118,7.611,7.611,0,0,1-2.98,3.053A8.975,8.975,0,0,1,1033.541,385.115Zm-3.251-.99h3.251a8,8,0,0,0,3.989-.95,6.637,6.637,0,0,0,2.6-2.662,9.35,9.35,0,0,0,0-8.172,6.663,6.663,0,0,0-2.6-2.652,8.013,8.013,0,0,0-3.989-.949h-3.251Z" transform="translate(-1027.774 -366.224)" fill="#353533"/></g><g transform="translate(154.153 0.25)"><path d="M1050.754,366.823h1.527v19.426h-1.527Z" transform="translate(-1050.26 -366.328)" fill="#353533"/><path d="M1052.673,386.641h-2.517V366.224h2.517Zm-1.527-.991h.536V367.215h-.536Z" transform="translate(-1050.156 -366.224)" fill="#353533"/></g><g transform="translate(159.417)"><path d="M1057.121,376.484a10.625,10.625,0,0,1,.722-3.955,9.564,9.564,0,0,1,2.026-3.163,9.278,9.278,0,0,1,3.067-2.1,10.237,10.237,0,0,1,7.688,0,9.283,9.283,0,0,1,3.067,2.1,9.572,9.572,0,0,1,2.026,3.163,11.2,11.2,0,0,1,0,7.91,9.572,9.572,0,0,1-2.026,3.163,9.281,9.281,0,0,1-3.067,2.1,10.237,10.237,0,0,1-7.688,0,9.276,9.276,0,0,1-3.067-2.1,9.565,9.565,0,0,1-2.026-3.163A10.626,10.626,0,0,1,1057.121,376.484Zm1.61,0a8.912,8.912,0,0,0,1.041,4.33,7.776,7.776,0,0,0,2.859,3.011,8.4,8.4,0,0,0,8.3,0,7.677,7.677,0,0,0,2.844-3.011,9.669,9.669,0,0,0,0-8.673,7.711,7.711,0,0,0-2.844-3,7.981,7.981,0,0,0-11.156,3A8.883,8.883,0,0,0,1058.731,376.484Z" transform="translate(-1056.626 -366.026)" fill="#353533"/><path d="M1066.676,386.838a10.273,10.273,0,0,1-4.038-.788,9.821,9.821,0,0,1-3.228-2.207,10.113,10.113,0,0,1-2.131-3.326,11.7,11.7,0,0,1,0-8.274,10.124,10.124,0,0,1,2.13-3.326,9.83,9.83,0,0,1,3.229-2.206,10.734,10.734,0,0,1,8.076,0,9.823,9.823,0,0,1,3.228,2.207,10.1,10.1,0,0,1,2.131,3.326,11.693,11.693,0,0,1,0,8.274,10.111,10.111,0,0,1-2.13,3.326,9.807,9.807,0,0,1-3.229,2.206A10.251,10.251,0,0,1,1066.676,386.838Zm0-19.927a9.278,9.278,0,0,0-3.651.71,8.839,8.839,0,0,0-2.906,1.984,9.13,9.13,0,0,0-1.921,3,10.709,10.709,0,0,0,0,7.544,9.123,9.123,0,0,0,1.922,3,8.842,8.842,0,0,0,2.9,1.985,9.74,9.74,0,0,0,7.3,0,8.834,8.834,0,0,0,2.906-1.984,9.137,9.137,0,0,0,1.921-3,10.7,10.7,0,0,0,0-7.544,9.117,9.117,0,0,0-1.922-3,8.833,8.833,0,0,0-2.9-1.985A9.291,9.291,0,0,0,1066.676,366.912Zm0,18.4a8.407,8.407,0,0,1-4.406-1.167,8.311,8.311,0,0,1-3.038-3.2,10.05,10.05,0,0,1,0-9.147,8.652,8.652,0,0,1,11.847-3.184,8.242,8.242,0,0,1,3.025,3.186,10.17,10.17,0,0,1,0,9.143,8.227,8.227,0,0,1-3.026,3.2A8.4,8.4,0,0,1,1066.676,385.312Zm0-16.873a7.255,7.255,0,0,0-6.573,3.836,9.051,9.051,0,0,0,0,8.2,7.328,7.328,0,0,0,2.679,2.824,7.9,7.9,0,0,0,7.786,0,7.225,7.225,0,0,0,2.664-2.822,9.17,9.17,0,0,0,0-8.2,7.268,7.268,0,0,0-2.665-2.808A7.422,7.422,0,0,0,1066.676,368.439Z" transform="translate(-1056.523 -365.922)" fill="#353533"/></g><g transform="translate(116.562 0.25)"><path d="M1012.962,386.3a7.68,7.68,0,0,1-7.671-7.671V366.823h1.514v11.808a6.157,6.157,0,1,0,12.314,0V366.823h1.514v11.808A7.681,7.681,0,0,1,1012.962,386.3Z" transform="translate(-1004.796 -366.328)" fill="#353533"/><path d="M1012.858,386.693a8.175,8.175,0,0,1-8.166-8.167v-12.3h2.5v12.3a5.662,5.662,0,1,0,11.324,0v-12.3h2.5v12.3A8.176,8.176,0,0,1,1012.858,386.693Zm-7.176-19.479v11.312a7.177,7.177,0,1,0,14.353,0V367.215h-.524v11.312a6.652,6.652,0,1,1-13.3,0V367.215Z" transform="translate(-1004.692 -366.224)" fill="#353533"/></g><g transform="translate(45.838 0.25)"><path d="M934.345,386.5l-4.629-8.255a8.028,8.028,0,0,0,1.38-.572,5.44,5.44,0,0,0,2.2-1.96,5.578,5.578,0,0,0,.806-3.038,5.488,5.488,0,0,0-.927-3.23,5.681,5.681,0,0,0-2.5-1.97,9,9,0,0,0-3.5-.65h-7.419V386.5h1.727v-7.973h6.562l4.471,7.973Zm-1.973-13.826a3.606,3.606,0,0,1-1.4,3.133,5.539,5.539,0,0,1-3.8,1.075h-5.692v-8.415h5.692a6.285,6.285,0,0,1,3.784,1.076A3.593,3.593,0,0,1,932.372,372.674Z" transform="translate(-919.261 -366.328)" fill="#353533"/><path d="M935.086,386.891h-2.964l-4.471-7.973h-5.776v7.973h-2.718V366.224h7.914a9.5,9.5,0,0,1,3.69.689,6.181,6.181,0,0,1,2.711,2.141,5.972,5.972,0,0,1,1.017,3.516,6.065,6.065,0,0,1-.884,3.3,5.922,5.922,0,0,1-2.393,2.138c-.311.156-.589.288-.88.4Zm-2.384-.99h.693l-4.517-8.057.592-.178a7.588,7.588,0,0,0,1.3-.54,4.948,4.948,0,0,0,2-1.784,5.1,5.1,0,0,0,.729-2.772,5,5,0,0,0-.836-2.944,5.2,5.2,0,0,0-2.286-1.8,8.513,8.513,0,0,0-3.306-.611h-6.925V385.9h.738v-7.973h7.346Zm-5.631-8.628h-6.186v-9.4h6.186a6.76,6.76,0,0,1,4.076,1.171,4.681,4.681,0,0,1,.014,7.063A6.04,6.04,0,0,1,927.071,377.273Zm-5.2-.991h5.2a5.055,5.055,0,0,0,3.5-.978,3.7,3.7,0,0,0-.011-5.466,5.81,5.81,0,0,0-3.492-.98h-5.2Z" transform="translate(-919.157 -366.224)" fill="#353533"/></g><g transform="translate(80.671)"><path d="M974.874,378.33a6.8,6.8,0,0,0-2.2-1.763,15.829,15.829,0,0,0-2.575-1.054q-1.368-.444-2.639-1a7.083,7.083,0,0,1-2.085-1.332,2.6,2.6,0,0,1-.905-1.887,2.9,2.9,0,0,1,1.244-2.421,5.376,5.376,0,0,1,3.213-.881,5.105,5.105,0,0,1,2.444.527,10.455,10.455,0,0,1,2.447,1.9l1.117-.979a9.994,9.994,0,0,0-2.848-2.266,7.213,7.213,0,0,0-3.193-.652,8.382,8.382,0,0,0-3.144.568,5.31,5.31,0,0,0-2.249,1.624,3.874,3.874,0,0,0-.831,2.471,3.766,3.766,0,0,0,.571,2.081,5.553,5.553,0,0,0,1.466,1.526,10.094,10.094,0,0,0,1.907,1.068,19.256,19.256,0,0,0,1.922.708,17.409,17.409,0,0,1,2.526.972A6.671,6.671,0,0,1,973.1,379a3.229,3.229,0,0,1,.961,2.207,3.738,3.738,0,0,1-1.254,2.747A5.024,5.024,0,0,1,969.252,385a5.776,5.776,0,0,1-2.819-.652,9.7,9.7,0,0,1-3.2-3.235h0l-1.187,1.038a10.108,10.108,0,0,0,1.095,1.588,7.873,7.873,0,0,0,2.574,1.97,7.775,7.775,0,0,0,3.438.735,8.662,8.662,0,0,0,3.731-.694,4.849,4.849,0,0,0,2.167-1.915,5.323,5.323,0,0,0,.717-2.748A4.216,4.216,0,0,0,974.874,378.33Z" transform="translate(-961.417 -366.026)" fill="#353533"/><path d="M969.023,386.838a8.308,8.308,0,0,1-3.654-.784,8.435,8.435,0,0,1-2.735-2.094,10.578,10.578,0,0,1-1.148-1.664l-.2-.351,1.955-1.709.3.539a9.279,9.279,0,0,0,3.017,3.048,5.3,5.3,0,0,0,2.567.584,4.6,4.6,0,0,0,3.211-.918,3.234,3.234,0,0,0,1.1-2.389,2.734,2.734,0,0,0-.829-1.869,6.194,6.194,0,0,0-1.887-1.347,16.809,16.809,0,0,0-2.454-.943,20.229,20.229,0,0,1-1.975-.728,10.584,10.584,0,0,1-2-1.12,6.075,6.075,0,0,1-1.595-1.661,4.275,4.275,0,0,1-.648-2.35,4.375,4.375,0,0,1,.936-2.777,5.819,5.819,0,0,1,2.454-1.776,8.9,8.9,0,0,1,3.329-.6,7.74,7.74,0,0,1,3.411.7,10.509,10.509,0,0,1,3.028,2.416l.273.366-1.839,1.611-.325-.38A10.031,10.031,0,0,0,971,368.852a4.645,4.645,0,0,0-2.208-.469,4.907,4.907,0,0,0-2.92.785,2.415,2.415,0,0,0-1.043,2.023,2.108,2.108,0,0,0,.752,1.528,6.617,6.617,0,0,0,1.941,1.237c.832.363,1.7.693,2.594.982a16.336,16.336,0,0,1,2.647,1.085,7.322,7.322,0,0,1,2.358,1.89,4.722,4.722,0,0,1,1.008,3.074,5.84,5.84,0,0,1-.786,3,5.354,5.354,0,0,1-2.38,2.11A9.181,9.181,0,0,1,969.023,386.838Zm-6.472-4.686a8.922,8.922,0,0,0,.836,1.163,7.446,7.446,0,0,0,2.415,1.847,7.312,7.312,0,0,0,3.22.686,8.225,8.225,0,0,0,3.517-.645,4.381,4.381,0,0,0,1.954-1.719,4.854,4.854,0,0,0,.649-2.5,3.707,3.707,0,0,0-.785-2.448,6.335,6.335,0,0,0-2.042-1.634,15.449,15.449,0,0,0-2.494-1.023c-.929-.3-1.832-.642-2.692-1.019a7.624,7.624,0,0,1-2.23-1.428,3.059,3.059,0,0,1-1.058-2.245,3.4,3.4,0,0,1,1.444-2.82,5.794,5.794,0,0,1,3.509-.978,5.609,5.609,0,0,1,2.678.586,11.8,11.8,0,0,1,2.244,1.65l.39-.341a10.226,10.226,0,0,0-2.369-1.774,6.772,6.772,0,0,0-2.976-.6,7.93,7.93,0,0,0-2.96.533,4.824,4.824,0,0,0-2.044,1.472,3.359,3.359,0,0,0-.725,2.163,3.259,3.259,0,0,0,.492,1.814,5.094,5.094,0,0,0,1.337,1.391,9.67,9.67,0,0,0,1.812,1.015,18.813,18.813,0,0,0,1.874.69,17.783,17.783,0,0,1,2.594,1,7.175,7.175,0,0,1,2.186,1.566,3.685,3.685,0,0,1,1.094,2.543,4.241,4.241,0,0,1-1.408,3.106,5.508,5.508,0,0,1-3.894,1.191,6.3,6.3,0,0,1-3.057-.712,10.455,10.455,0,0,1-3.078-2.91Z" transform="translate(-961.285 -365.922)" fill="#353533"/></g></g><g transform="translate(1703.936 717.871)"><path d="M904.761,406.263h1.659c1.448,0,2.335.475,2.335,1.8,0,1.282-.878,1.9-2.3,1.9h-1.167v2.7h-.527Zm1.588,3.258c1.264,0,1.87-.431,1.87-1.458s-.632-1.361-1.9-1.361h-1.027v2.819Z" transform="translate(-904.761 -405.684)" fill="#353533"/><path d="M911.066,410.662a2.238,2.238,0,0,1,2.054-2.466c1.133,0,1.808.808,1.808,2.176a2.467,2.467,0,0,1-.026.37h-3.319a1.772,1.772,0,0,0,1.712,1.94,2.1,2.1,0,0,0,1.246-.4l.193.377a2.619,2.619,0,0,1-1.492.456A2.216,2.216,0,0,1,911.066,410.662Zm3.4-.325c0-1.132-.518-1.7-1.335-1.7a1.666,1.666,0,0,0-1.545,1.7Z" transform="translate(-905.853 -406.019)" fill="#353533"/><path d="M917.414,410.662a2.139,2.139,0,1,1,2.115,2.449A2.213,2.213,0,0,1,917.414,410.662Zm3.7,0c0-1.194-.676-2.019-1.59-2.019s-1.58.825-1.58,2.019.668,2.01,1.58,2.01S921.119,411.856,921.119,410.662Z" transform="translate(-906.952 -406.019)" fill="#353533"/><path d="M924.824,408.318h.421l.062.571h.017a2.718,2.718,0,0,1,1.562-.694c1.247,0,1.879.948,1.879,2.388,0,1.6-.965,2.528-2.062,2.528a2.311,2.311,0,0,1-1.378-.571l.008.861v1.685h-.509Zm3.4,2.266c0-1.124-.387-1.941-1.432-1.941a2.347,2.347,0,0,0-1.457.747v2.7a2.149,2.149,0,0,0,1.325.571C927.571,412.664,928.221,411.839,928.221,410.584Z" transform="translate(-908.235 -406.019)" fill="#353533"/><path d="M931.882,411.849v-6.286h.51V411.9c0,.22.087.316.21.316a.8.8,0,0,0,.167-.017l.078.4a1.025,1.025,0,0,1-.342.053C932.084,412.656,931.882,412.392,931.882,411.849Z" transform="translate(-909.457 -405.563)" fill="#353533"/><path d="M934.887,410.662a2.238,2.238,0,0,1,2.054-2.466c1.132,0,1.807.808,1.807,2.176a2.467,2.467,0,0,1-.026.37H935.4a1.773,1.773,0,0,0,1.712,1.94,2.1,2.1,0,0,0,1.247-.4l.193.377a2.621,2.621,0,0,1-1.492.456A2.216,2.216,0,0,1,934.887,410.662Zm3.4-.325c0-1.132-.518-1.7-1.335-1.7a1.667,1.667,0,0,0-1.545,1.7Z" transform="translate(-909.978 -406.019)" fill="#353533"/><path d="M941.2,415.038a1.328,1.328,0,0,0,.772-1.176.459.459,0,0,1-.106.008.43.43,0,0,1-.457-.447.44.44,0,0,1,.466-.439c.315,0,.527.289.527.755a1.824,1.824,0,0,1-1.053,1.633Z" transform="translate(-911.071 -406.848)" fill="#353533"/><path d="M947.465,411.8l.325-.369a2.464,2.464,0,0,0,1.852.852c.948,0,1.537-.5,1.537-1.229,0-.773-.5-1.019-1.133-1.3l-.957-.422a1.773,1.773,0,0,1-1.3-1.6,1.706,1.706,0,0,1,1.9-1.606,2.442,2.442,0,0,1,1.807.772l-.3.342a2.051,2.051,0,0,0-1.509-.641c-.817,0-1.362.43-1.362,1.088,0,.728.623,1,1.089,1.2l.957.422c.729.325,1.344.728,1.344,1.7a1.846,1.846,0,0,1-2.072,1.738A2.849,2.849,0,0,1,947.465,411.8Z" transform="translate(-912.156 -405.66)" fill="#353533"/><path d="M954.779,408.318h.421l.062.571h.017a2.721,2.721,0,0,1,1.563-.694c1.247,0,1.879.948,1.879,2.388,0,1.6-.966,2.528-2.063,2.528a2.312,2.312,0,0,1-1.378-.571l.009.861v1.685h-.51Zm3.4,2.266c0-1.124-.386-1.941-1.431-1.941a2.346,2.346,0,0,0-1.457.747v2.7a2.149,2.149,0,0,0,1.325.571C957.526,412.664,958.177,411.839,958.177,410.584Z" transform="translate(-913.422 -406.019)" fill="#353533"/><path d="M961.265,411.821c0-1.035.922-1.527,2.984-1.764.018-.694-.184-1.414-1.071-1.414a2.534,2.534,0,0,0-1.475.536l-.228-.369a3.252,3.252,0,0,1,1.774-.614c1.115,0,1.51.8,1.51,1.835V413h-.431l-.053-.6h-.016a2.7,2.7,0,0,1-1.634.711A1.234,1.234,0,0,1,961.265,411.821Zm2.984.132v-1.519c-1.844.211-2.475.641-2.475,1.36a.843.843,0,0,0,.956.887A2.305,2.305,0,0,0,964.249,411.953Z" transform="translate(-914.545 -406.019)" fill="#353533"/><path d="M967.634,410.662A2.235,2.235,0,0,1,969.8,408.2a1.975,1.975,0,0,1,1.369.57l-.289.351a1.538,1.538,0,0,0-1.071-.474,1.8,1.8,0,0,0-1.641,2.019c0,1.194.649,2.01,1.632,2.01a1.867,1.867,0,0,0,1.22-.518l.246.351a2.265,2.265,0,0,1-1.492.605A2.173,2.173,0,0,1,967.634,410.662Z" transform="translate(-915.648 -406.019)" fill="#353533"/><path d="M973.345,410.662A2.238,2.238,0,0,1,975.4,408.2c1.133,0,1.808.808,1.808,2.176a2.355,2.355,0,0,1-.026.37h-3.318a1.771,1.771,0,0,0,1.712,1.94,2.094,2.094,0,0,0,1.246-.4l.193.377a2.61,2.61,0,0,1-1.492.456A2.217,2.217,0,0,1,973.345,410.662Zm3.4-.325c0-1.132-.518-1.7-1.334-1.7a1.667,1.667,0,0,0-1.545,1.7Z" transform="translate(-916.637 -406.019)" fill="#353533"/><path d="M982.76,411.821c0-1.035.922-1.527,2.985-1.764.017-.694-.184-1.414-1.071-1.414a2.532,2.532,0,0,0-1.475.536l-.228-.369a3.247,3.247,0,0,1,1.774-.614c1.115,0,1.51.8,1.51,1.835V413h-.43l-.053-.6h-.018a2.7,2.7,0,0,1-1.632.711A1.235,1.235,0,0,1,982.76,411.821Zm2.985.132v-1.519c-1.843.211-2.475.641-2.475,1.36a.844.844,0,0,0,.957.887A2.3,2.3,0,0,0,985.745,411.953Z" transform="translate(-918.268 -406.019)" fill="#353533"/><path d="M989.6,408.318h.421l.062.712h.017a2.3,2.3,0,0,1,1.6-.834c.974,0,1.421.605,1.421,1.808V413h-.509v-2.924c0-.974-.307-1.421-1.027-1.421-.544,0-.93.281-1.475.843V413H989.6Z" transform="translate(-919.451 -406.019)" fill="#353533"/><path d="M996.061,410.207a2.229,2.229,0,0,1,2.071-2.466,2.1,2.1,0,0,1,1.4.57l-.035-.843v-1.9H1000v6.979h-.422l-.061-.588H999.5a2.168,2.168,0,0,1-1.5.7C996.825,412.656,996.061,411.778,996.061,410.207Zm3.432,1.264v-2.7a1.888,1.888,0,0,0-1.308-.58c-.895,0-1.58.869-1.58,2.019,0,1.211.536,2,1.484,2A1.958,1.958,0,0,0,999.493,411.471Z" transform="translate(-920.571 -405.563)" fill="#353533"/><path d="M1006.156,409.417c0-2.027,1.106-3.291,2.651-3.291,1.563,0,2.66,1.263,2.66,3.291s-1.1,3.336-2.66,3.336C1007.262,412.753,1006.156,411.454,1006.156,409.417Zm4.767,0c0-1.737-.843-2.817-2.116-2.817s-2.1,1.08-2.1,2.817.833,2.863,2.1,2.863S1010.923,411.156,1010.923,409.417Z" transform="translate(-922.319 -405.66)" fill="#353533"/><path d="M1015.415,412.068h-.017l-.062.474h-.412v-6.979h.509v2l-.026.9a2.588,2.588,0,0,1,1.58-.719c1.247,0,1.879.948,1.879,2.388,0,1.6-.966,2.528-2.063,2.528A2.317,2.317,0,0,1,1015.415,412.068Zm2.906-1.94c0-1.124-.387-1.941-1.431-1.941a2.306,2.306,0,0,0-1.457.747v2.7a2.113,2.113,0,0,0,1.325.57C1017.672,412.208,1018.321,411.383,1018.321,410.128Z" transform="translate(-923.837 -405.563)" fill="#353533"/><path d="M1020.5,414.7l.114-.4a1.469,1.469,0,0,0,.483.1c.518,0,.614-.413.614-1v-5.451h.518v5.47c0,.93-.341,1.413-1.105,1.413A1.584,1.584,0,0,1,1020.5,414.7Zm1.054-8.261a.4.4,0,0,1,.421-.422.413.413,0,1,1,0,.825A.4.4,0,0,1,1021.55,406.441Z" transform="translate(-924.802 -405.642)" fill="#353533"/><path d="M1024.87,410.662a2.239,2.239,0,0,1,2.054-2.466c1.133,0,1.809.808,1.809,2.176a2.463,2.463,0,0,1-.026.37h-3.318a1.771,1.771,0,0,0,1.711,1.94,2.1,2.1,0,0,0,1.247-.4l.193.377a2.619,2.619,0,0,1-1.493.456A2.217,2.217,0,0,1,1024.87,410.662Zm3.4-.325c0-1.132-.518-1.7-1.333-1.7a1.666,1.666,0,0,0-1.545,1.7Z" transform="translate(-925.56 -406.019)" fill="#353533"/><path d="M1031.218,410.662a2.235,2.235,0,0,1,2.169-2.466,1.977,1.977,0,0,1,1.369.57l-.29.351a1.535,1.535,0,0,0-1.071-.474,1.8,1.8,0,0,0-1.641,2.019c0,1.194.65,2.01,1.633,2.01a1.872,1.872,0,0,0,1.22-.518l.246.351a2.269,2.269,0,0,1-1.493.605A2.173,2.173,0,0,1,1031.218,410.662Z" transform="translate(-926.659 -406.019)" fill="#353533"/><path d="M1037.488,411.405v-2.915h-.728V408.1l.746-.044.061-1.352h.43v1.352h1.343v.43H1038v2.95c0,.588.158.974.781.974a1.639,1.639,0,0,0,.571-.131l.123.4a2.636,2.636,0,0,1-.781.175C1037.77,412.854,1037.488,412.275,1037.488,411.405Z" transform="translate(-927.618 -405.761)" fill="#353533"/></g></g></svg>